<svg width="64" height="64" viewBox="0 0 420 440" fill="none" xmlns="http://www.w3.org/2000/svg">
  <rect width="420" height="440" fill="#0a1628"/>
  <defs>
    <linearGradient id="archGrad" x1="70" y1="40" x2="200" y2="420" gradientUnits="userSpaceOnUse">
      <stop offset="0%" stop-color="#ffffff"/>
      <stop offset="30%" stop-color="#eef2fa"/>
      <stop offset="65%" stop-color="#c0cfe8"/>
      <stop offset="100%" stop-color="#90a8cc"/>
    </linearGradient>
    <linearGradient id="dGrad" x1="170" y1="200" x2="360" y2="430" gradientUnits="userSpaceOnUse">
      <stop offset="0%" stop-color="#ffffff"/>
      <stop offset="30%" stop-color="#e8f0f8"/>
      <stop offset="65%" stop-color="#b8cce0"/>
      <stop offset="100%" stop-color="#8899bb"/>
    </linearGradient>
  </defs>
  <path d="M 62 420 L 62 185 Q 62 38 175 38 Q 288 38 288 185 L 288 222 Q 282 198 260 190 L 242 186 Q 240 90 175 90 Q 110 90 108 186 L 106 420 Z" fill="url(#archGrad)"/>
  <path d="M 106 420 L 106 190 Q 108 115 145 100 Q 118 114 114 190 L 114 420 Z" fill="rgba(255,255,255,0.15)"/>
  <path d="M 165 240 L 165 278 L 237 278 Q 287 278 287 338 Q 287 398 237 398 L 200 398 L 200 420 L 242 420 Q 340 420 340 338 Q 340 240 242 240 Z" fill="url(#dGrad)"/>
  <path d="M 167 243 L 240 243 Q 307 243 327 295 Q 303 250 245 247 L 167 247 Z" fill="rgba(255,255,255,0.18)"/>
</svg>
